<svg xmlns="http://www.w3.org/2000/svg" viewBox="0 0 1061.43 251.01"><defs><style>.cls-1{fill:#605c7e;}.cls-2{font-size:166.74px;fill:#fff;font-family:BodoniMT, Bodoni MT;letter-spacing:-0.12em;}.cls-3{letter-spacing:0em;}</style></defs><title>Recurso 2</title><g id="Capa_2" data-name="Capa 2"><g id="Capa_1-2" data-name="Capa 1"><path class="cls-1" d="M474.84,202.13c-.26-11-7.44-21.56-19.18-28.79-.43-.26-.88-.51-1.32-.76,12,3.75,24.06,7.36,36.82,9.7a148.83,148.83,0,0,0,24.11,2.54c.86,0,1.26-.63.81-1.08-5-4.88-12.21-8.46-20.16-10.82-9-2.68-18.84-3.72-28.67-3.93-6-.12-12,.06-18,.36a1.28,1.28,0,0,0-.53.14l-2-.62c-.67-.26-1.33-.53-2-.78a1.41,1.41,0,0,0-.7-.05l-4.42-1.31-.35-.16a.61.61,0,0,0-.35,0c-2.48-.71-5-1.39-7.51-2a63.39,63.39,0,0,0-11.87-1.75,43.48,43.48,0,0,0-5.23.09c1.91-.57,3.85-1.11,5.8-1.63h.13a10.65,10.65,0,0,0,3.11-.85c10.5-2.67,21.36-4.75,32.25-6.51a16.75,16.75,0,0,0,2.52-.41l.57-.09c13-2,26.06-3.82,39.12-5.6,13.34,5.86,28.21,10.2,43.35,13.47l3,.63a.6.6,0,0,0-.21.53c.78,5.46,3.94,10.75,7.48,15.55,1.81,2.45,3.79,4.83,5.81,7.19a49.84,49.84,0,0,0,5.72,6.15,14.23,14.23,0,0,0,8.69,3.52c.71,0,1.16-.4,1.1-.84a3.81,3.81,0,0,0-.07-.47.36.36,0,0,0,0-.61l-.09-.07c-1.5-9.56-7.47-18.77-17-25.67a46.87,46.87,0,0,0-7.57-4.51,310.67,310.67,0,0,0,43.32,5.18c9.69.47,19.38.43,29.11,0,.93,0,1.36-.75.63-1.17a81.06,81.06,0,0,0-25.43-9.08,98.89,98.89,0,0,0-30.74-.72,96.06,96.06,0,0,0-17.13,3.87.86.86,0,0,0-.49.34q-13.43-2.64-26.26-6.4c-7.31-2.15-14.41-4.59-21.42-7.15l10.57-1.45,55.76-7.74q8.22-1.14,16.5-2.25c5.16.27,10.31.61,15.4,1.21s10,1.4,14.89,2.39a.59.59,0,0,0,0,.88c9.34,9.48,23.48,16.88,39.47,20.37,4.89,1.07,10.29,1.61,15.23.11.54-.17.77-.75.34-1l-1.35-.87a33.25,33.25,0,0,0-5.66-6.22,48.63,48.63,0,0,0-8.42-5.88,66.81,66.81,0,0,0-22.82-7.39c-2.43-.36-4.9-.61-7.39-.73-1.27-.06-2.53-.09-3.8-.08a29.51,29.51,0,0,0-3.26.1q-7.11-1.47-14.47-2.38c-4.35-.53-8.76-.94-13.19-1.15,9.48-1.28,19-2.59,28.42-4h.29a1.27,1.27,0,0,0,.89,0l.16-.06c2-.06,4-.09,6-.05,3.78.06,7.55.33,11.27.74a141,141,0,0,1,21.76,4.22c14.45,3.95,27.49,9.76,40,15.94,6.36,3.14,12.61,6.38,18.94,9.53q4.79,2.38,9.65,4.69c2.11,1,5.48,3,8.33,1.91,3.38-1.31.31-4.58-.84-6.12a49,49,0,0,0-5.37-6,61.39,61.39,0,0,0-14.25-9.88c-11.74-6-26.45-9.18-41.3-9-1.83,0-3.67.09-5.5.2a1.09,1.09,0,0,0-.44.11q-2.83-.93-5.73-1.79a134.74,134.74,0,0,0-36.65-5.58l2.4-.39a105.21,105.21,0,0,0,14.09-.82c5.45-.6,10.85-1.46,16.2-2.42,10.84-1.94,21.55-4.26,32.51-5.83A196.09,196.09,0,0,1,708.08,119a108.61,108.61,0,0,0,25.68,12.12A128.81,128.81,0,0,0,748.68,135a104.12,104.12,0,0,0,16,2c6,.23,12.29-.39,17.46-2.75.54-.25.82-.72.36-1.09-6.41-5-15.09-8.36-24.19-10.66a161.38,161.38,0,0,0-24.7-4.13q3.63-.42,7.2-1a124.76,124.76,0,0,0,27.06-7.78,102.38,102.38,0,0,0,13.43-6.82c.6-.36.32-1.12-.52-1.13-.55,0-1.11,0-1.66,0a.49.49,0,0,0-.21,0h0c-19.4,0-38.2,4.8-55.6,10.77-4.77,1.64-9.65,3.31-14.19,5.27a1.55,1.55,0,0,0-1.4.08c-4.86.21-9.72.6-14.53,1.18-11.11,1.36-22,3.65-32.85,5.72a282.39,282.39,0,0,1-28.69,4.2c13.74-2.4,27.32-5.23,40.54-8.86,25.61-7,50.29-17.55,68-32.42a.54.54,0,0,0,.57.12C747,85.79,753.32,84,759.86,82.5c1.6-.35,3.22-.69,4.84-1a.92.92,0,0,0,.29.17.7.7,0,0,0,.59.39,275.58,275.58,0,0,0,60,3.75c5-.22,10.35-.51,14.71-2.48.55-.25.78-.82.15-1.09-11-4.76-24.62-5.71-37.5-5.65a202.85,202.85,0,0,0-25.85,1.76,97.73,97.73,0,0,0,9.75-3.49,87.61,87.61,0,0,0,18.21-10.21q2-1.46,3.78-3c1.14-1,2.31-2.12,1.83-3.4s-2.38-1.7-4.18-1.27S803,58,801.28,58.61A106,106,0,0,0,782,67.34a80.78,80.78,0,0,0-16.93,13c-1,.2-2,.39-3,.6a145,145,0,0,0-21.18,6c1.63-1.39,3.21-2.81,4.71-4.28a84.55,84.55,0,0,0,12.66-15.9.73.73,0,0,0,.54-.15c3.41-2.83,6.45-5.86,9.78-8.73,1-.85,2-1.69,3-2.53C786,50.46,804.77,49.63,815,40a14,14,0,0,0,4.49-7.65c.08-.43-.51-.77-1.11-.68a88.18,88.18,0,0,0-27.2,8.78,108.76,108.76,0,0,0-19.54,13,11.56,11.56,0,0,0-1.36.51c-.31.13-.32.37-.15.52a.52.52,0,0,0-.13.32l-1.29,1.09c-3,2.61-6,5.3-8.73,8.1,7.86-13.87,11.34-28.89,13.48-43.53.4-2.74.66-5.47.79-8.22,0-.35-.72-.38-.8,0-2.47,10.93-3.91,21.89-7.46,32.72a98.56,98.56,0,0,1-8.45,19c0-1.27-.1-2.54-.07-3.82,0-2.38.22-4.77.49-7.16.54-4.72,1.44-9.42,2.23-14.13,1.42-8.54,2.38-17.25.08-25.67A31.69,31.69,0,0,0,753.34.34c-.37-.41-1.53-.52-1.76.09a46,46,0,0,0,.19,33.77,52.32,52.32,0,0,0,4.62,8.94,1,1,0,0,0,1.18.3c-.45,2.69-.89,5.38-1.22,8.07a64.42,64.42,0,0,0-.55,7.84,26.34,26.34,0,0,0,.55,6.44A81.71,81.71,0,0,1,749,76c-11.84,13.91-29.51,24.77-49.47,32.94A84.91,84.91,0,0,0,705.84,97a75.7,75.7,0,0,0,4.58-12.86,50.64,50.64,0,0,0,1.06-5.52.91.91,0,0,0,.58-.53,64.3,64.3,0,0,0,17.42-6A53.21,53.21,0,0,0,743.7,61.85a35.08,35.08,0,0,0,5.44-7.22c.25-.45-.35-1.07-1.1-.89-12.93,3.1-24.41,8.69-32.82,16.22-1.17,1-2.27,2.12-3.3,3.22v0A38.82,38.82,0,0,0,710,60a40,40,0,0,0-14.5-19.54c-.91-.67-1.86-1.32-2.85-1.94a7.51,7.51,0,0,0-3.37-1.32,3.1,3.1,0,0,0-2.84,1.09c-.56.86-.18,1.83.07,2.69A119,119,0,0,0,691,54.17c3.38,8,8.27,15.82,16.17,22.15.22.17.47.33.69.51,0,0,0,0,0,0l1,1.33a.36.36,0,0,0,.2.26l.2.27a.66.66,0,0,0,.37.22c-.14,1-.28,1.94-.48,2.91-1.69,8.41-5.42,16.59-9.78,24.57-.53,1-1.06,1.95-1.54,2.94a.39.39,0,0,0,0,.23c-6.2,2.48-12.6,4.72-19.12,6.7-17.06,5.18-34.85,8.82-52.89,11.79,2.27-1,4.51-1.94,6.7-3,5-2.32,9.76-4.83,14.32-7.53a137.48,137.48,0,0,0,24.24-18,89.44,89.44,0,0,0,10.59-11.8c.22-.29-.49-.54-.74-.25l0,.06a2.28,2.28,0,0,0-.66,0c-.55,0-1.09.07-1.63.12-1.12.11-2.22.28-3.32.48A59.25,59.25,0,0,0,669,89.61c-1.62.48-3.19,1-4.73,1.62a.33.33,0,0,0-.22,0l-.33.2a56,56,0,0,0-6.1,2.84,44.19,44.19,0,0,0-9.29,6.67,34.13,34.13,0,0,0-6.56,8.85c-2,3.81-3.62,7.77-6.52,11.35a.64.64,0,0,0,.09,1l-2.07,1c-4.71,2.22-9.6,4.18-14.56,6.08-14.79,2.3-29.69,4.24-44.45,6.29l-3.88.54c.84-.37,1.68-.76,2.48-1.17a51.34,51.34,0,0,0,8.56-5.64c.43,0,.83-.2.87-.59,0,0,0-.09,0-.13.54-.44,1.06-.88,1.58-1.33,3.27-2.79,6.43-5.66,9.51-8.55a94.11,94.11,0,0,0,8.33-8.68,31.41,31.41,0,0,0,6.14-10.58c.07-.23-.35-.32-.59-.21h0a4.1,4.1,0,0,0-2,.42c-.78.32-1.54.64-2.29,1q-2.21,1-4.22,2.21a47.46,47.46,0,0,0-7.11,5.12,34.61,34.61,0,0,0-9.4,12.72,21.63,21.63,0,0,0-1.78,7.75,56,56,0,0,1-6.49,4.43,40.43,40.43,0,0,1-6.92,3.15,38.47,38.47,0,0,1-3.75,1.07l-.11,0c-21.91,3-43.84,6-65.74,9.07a1.08,1.08,0,0,0-.37-.2,8.93,8.93,0,0,0-2.44-.33c6.09-2.86,10.85-6.77,15.52-10.66,9.71-8.11,20.29-15.72,29.63-24,2.62-2.33,5.13-4.71,7.48-7.17a47.59,47.59,0,0,0,6.16-7.58.17.17,0,0,0,0-.12c.26-.19.19-.58-.27-.56a54.78,54.78,0,0,0-15.38,3.23,62.09,62.09,0,0,0-13.29,6.56A48.4,48.4,0,0,0,504,132.08c-.34,1.1-.65,2.2-.91,3.31a10.5,10.5,0,0,0-.49,3.35,56.71,56.71,0,0,1-7.49,4.79,47.82,47.82,0,0,1-10.91,4,54.75,54.75,0,0,1-6,1.11c-1.32.17-2.66.27-4,.39.15-.15.05-.4-.28-.34-2.89.52-5.69,1.29-8.51,2-10.94,1.62-22,3.44-32.9,5.76l1.39-.66c2.17-1.1,4.27-2.25,6.28-3.48a47.88,47.88,0,0,0,4.12-2.7,1.14,1.14,0,0,0,.77-.24c.23-.2.47-.38.71-.57,2.77-.53,5.5-1.17,8.2-1.84,4-1,7.92-2.06,11.78-3.28A186.84,186.84,0,0,0,488.12,135c4-1.86,7.9-3.86,11.65-6,.61-.35.14-1.13-.66-1-16,3.25-32.56,6.69-45.94,14,1.44-1.18,2.85-2.39,4.19-3.63a81.71,81.71,0,0,0,12.36-14.38,138.65,138.65,0,0,0,9.49-17c3.14-6.44,6.14-12.94,9.92-19.23h.15c.66.12,1-.54.38-.7a8.63,8.63,0,0,0-5.29.65A42.75,42.75,0,0,0,479.93,90,52.8,52.8,0,0,0,472,95.48a54.24,54.24,0,0,0-11.63,13.3,78.7,78.7,0,0,0-7.56,16.83c-1.83,5.51-2.93,11.22-6,16.51a24.43,24.43,0,0,1-6.88,7.44c-1.43.87-2.9,1.71-4.39,2.53a27.31,27.31,0,0,1-4.91,1.71c-.6.15-.29.77.29.72q-4.75,2.37-9.81,4.42a1,1,0,0,0-.4.29c-13.73,3.54-26.83,8.13-38.45,14.49a90.59,90.59,0,0,0-8.28,5.09c-1.05.72.37,1.89,1.46,1.18,10.06-6.57,21.48-11.55,33.64-15.49a45.42,45.42,0,0,1,9.81-.68,59.47,59.47,0,0,1,10.76,1.5c3.49.79,6.91,1.73,10.28,2.74a24.68,24.68,0,0,1,2.46,2.18,25,25,0,0,1,2.78,3.56c1.67,2.54,2.92,5.21,4.44,7.79a51.1,51.1,0,0,0,13.26,14.48,70.38,70.38,0,0,0,10.55,6.55C473.9,202.88,474.85,202.61,474.84,202.13ZM550,161.65l.36-.1a265.75,265.75,0,0,1,53.45,2.34c3.09.48,6.13,1,9.16,1.65l-1.25-.1-6.51-.54c-4.45-.36-8.91-.69-13.36-1-8.92-.66-17.85-1.23-26.81-1.64-4.82-.22-9.64-.42-14.48-.49Zm14.59,28.8a44.82,44.82,0,0,1-5.34-5.74,79.9,79.9,0,0,1-10.13-14.05,35,35,0,0,1-2.94-7.79l1,.6c3.52,8.6,9.42,16.72,16.94,23.9a76,76,0,0,0,6.37,5.49c0,.16,0,.31.08.47A12.27,12.27,0,0,1,564.6,190.45Zm5.49.44a93.33,93.33,0,0,1-9.84-9.11A78.28,78.28,0,0,1,551,169.43c-.73-1.2-1.39-2.43-2-3.67.4.61.81,1.22,1.24,1.83,1.14,1.63,2.37,3.23,3.66,4.8a86.15,86.15,0,0,0,8.48,8.89q2.68,2.44,5.61,4.74a.84.84,0,0,0,.65.15h0A32.46,32.46,0,0,1,570.09,190.89Zm-10.25-17.8a40.55,40.55,0,0,1,8,11.27A90.2,90.2,0,0,1,551.75,168c-.7-.95-1.36-1.91-2-2.86A62.47,62.47,0,0,1,559.84,173.09Zm-6.24-10.8c7.7.49,15.43.87,23.13,1.34,8.83.54,17.64,1.17,26.42,1.94q3.75.33,7.48.69l3.57.34,1.33.14a320.24,320.24,0,0,1-45.93-2.1Q561.52,163.68,553.6,162.29Zm25.18-4.91a91,91,0,0,1,27.86,4.45,71.34,71.34,0,0,1,6.91,2.71c-6.87-1.33-13.94-2.32-21-3a233.87,233.87,0,0,0-27.31-1.18c-4.23.08-8.47.26-12.69.59A96,96,0,0,1,578.78,157.38Zm36.72-16.81c12.85,5.08,25.8,10,38.45,15.33,1.84.77,3.66,1.55,5.48,2.33l2.42,1c-2.93-.58-5.79-1.35-8.59-2.13q-5.35-1.49-10.48-3.29a133.93,133.93,0,0,1-19.3-8.5c-2.64-1.42-5.17-2.94-7.67-4.46Zm37.68,19.17a87.27,87.27,0,0,1-11.12-3.26,83,83,0,0,1-19.12-9.78q-2.43-1.72-4.62-3.59a121.19,121.19,0,0,0,12.78,6.64,155.69,155.69,0,0,0,20.39,7.62c4,1.16,8.08,2.06,12.09,3.14A31.73,31.73,0,0,1,653.18,159.74Zm9.77-.88c-.88-.37-1.75-.75-2.63-1.11l-4.87-2-9.73-3.93q-9.78-4-19.68-7.82-4.32-1.68-8.69-3.3A159.49,159.49,0,0,1,650,151.8,128.74,128.74,0,0,1,663,158.86ZM621.09,140c2.14.06,4.27.22,6.38.43a67.85,67.85,0,0,1,12.35,2.44,53.42,53.42,0,0,1,19,9.82,37.94,37.94,0,0,1,4.65,4.67A141.33,141.33,0,0,0,636.82,145a168.67,168.67,0,0,0-17.18-5C620.12,140,620.6,140,621.09,140Zm109,27.08a23.47,23.47,0,0,1-4.28-1.83c-3.07-1.46-6.11-3-9.13-4.47-6.17-3.08-12.27-6.21-18.47-9.27a267.06,267.06,0,0,0-29.62-12.77l.67,0c4.12,1.09,8.23,2.15,12.24,3.42q6.87,2.19,13.47,4.73a201.16,201.16,0,0,1,24.67,11.41c4.42,2.44,8.67,5,12.71,7.74a.79.79,0,0,0,.3.12s0,0,0,0C733,167.41,731.32,167.38,730.11,167.07Zm-1.83-7c.85.95,1.64,1.93,2.38,2.92.23.31.44.62.66.93a187.85,187.85,0,0,0-21.21-11.66,202.61,202.61,0,0,0-26.35-10.12c-2.56-.78-5.15-1.52-7.75-2.24-1.5-.41-3-.83-4.51-1.22a95.34,95.34,0,0,1,24.57,3c1.55,1.06,3.26,2,4.9,3q3.3,1.92,6.75,3.72c4.67,2.44,9.53,4.74,14.58,6.81a.83.83,0,0,0,.82-.1A48.86,48.86,0,0,1,728.28,160.06Zm-6.81-6.29c-4.46-1.86-8.8-3.82-13-6-2.31-1.19-4.57-2.43-6.77-3.7-.88-.51-1.74-1-2.61-1.57a77.33,77.33,0,0,1,8.63,3.15A64.88,64.88,0,0,1,721.47,153.77Zm29.26-19.89a123.9,123.9,0,0,1-27.91-8.72,100,100,0,0,1-11.16-6,229.18,229.18,0,0,0,51.63,13.24c2.57.36,5.15.69,7.75,1,2.39.27,4.86.63,7.31.73C769.79,136.92,759.25,135.5,750.73,133.88Zm29.36-.36s0,0,0-.05l0,0Zm-1.65-1.22c.42.27.8.56,1.19.85h0c-2.38-.33-4.85-.39-7.25-.63s-4.68-.49-7-.79c-4.68-.59-9.32-1.32-13.91-2.16A242.84,242.84,0,0,1,724.6,123q-5.85-1.78-11.52-3.85l2.16.08c2.36.74,4.83,1.36,7.26,2q5.25,1.27,10.66,2.26a202.09,202.09,0,0,0,22.05,2.68c3.77.26,7.56.38,11.35.43A55.68,55.68,0,0,1,778.44,132.3Zm-25-9.43c3.43.75,6.85,1.63,10.13,2.68a197.13,197.13,0,0,1-39.28-4.77c-2.05-.46-4.06-1-6.08-1.52,2.23,0,4.47-.06,6.7-.17A177.11,177.11,0,0,1,753.48,122.87Zm2.38-10.43c-1.78.55-3.59,1-5.42,1.51l.82-.4c1.33-.61,2.68-1.21,4-1.79,2.62-1.12,5.31-2.17,8-3.16,3.56-1.3,7.2-2.48,10.9-3.57A110.37,110.37,0,0,1,755.86,112.44Zm22.3-9.53c-.53.31-1.08.6-1.62.9-4.68,1.25-9.26,2.67-13.71,4.28q-4.1,1.48-8.06,3.14c-1.32.55-2.63,1.11-3.92,1.69a37.07,37.07,0,0,0-3.81,1.8s0,0-.07.06a130.53,130.53,0,0,1-15.63,2.53,221.07,221.07,0,0,1,36.24-12.53q3.78-.94,7.61-1.81Q776.68,102.93,778.16,102.91Zm-38.52,10q-5.35,2.09-10.48,4.41a.64.64,0,0,0-.26.21l-.78.07c-1,.08-2,.13-3,.18-3.74-.18-7.49-.24-11.25-.2,13.64-3.25,27.09-7,40.28-11.09,2.5-.77,5-1.56,7.46-2.37.79-.11,1.57-.22,2.37-.31,2.47-.3,5-.52,7.45-.67A223.68,223.68,0,0,0,739.64,112.91Zm-3.94-3.12a187.38,187.38,0,0,1,22.57-5.17c-11.18,3.5-22.5,6.75-34,9.61q-3.83.94-7.68,1.85c1.87-.67,3.74-1.34,5.62-2C726.63,112.59,731.12,111.12,735.7,109.79Zm76.33-25a278.12,278.12,0,0,1-29.52-1.76c-4.83-.54-9.62-1.23-14.37-2l.21-.18c-.06.08-.05.19.1.21,9,1.38,18.11,2.19,27.31,2.71s18.39.62,27.61.35q3.79-.1,7.57-.3c1.29-.06,2.58-.13,3.86-.21l.3,0a51.17,51.17,0,0,1-8.35.92Q819.39,84.9,812,84.84Zm25.47-2.29c-.76,0-1.53.09-2.29.15l-3.53.23q-3.45.21-6.9.34c-4.56.18-9.13.26-13.68.25-9.17,0-18.32-.38-27.38-1.16-5.07-.44-10.14-1-15.17-1.55a.17.17,0,0,0-.13,0h0c1.5-.26,3-.51,4.5-.74,1.88.27,3.82.41,5.72.58s4,.33,6,.48q6.08.45,12.19.69c8.14.33,16.32.41,24.49.25,2.24,0,4.47-.1,6.71-.18l3.43-.13a21.93,21.93,0,0,0,3.15-.22C835.59,81.86,836.56,82.19,837.5,82.55Zm-18-4a80.57,80.57,0,0,1,12.39,2.17l-3.22.14c-2,.08-3.93.15-5.89.2q-6.06.16-12.1.14-12.1,0-24.13-.79c-2.27-.14-4.54-.29-6.81-.47l-3.85-.33c1.26-.18,2.52-.34,3.78-.49A186.2,186.2,0,0,1,819.48,78.59ZM809,59c0,.64-.72,1.21-1.29,1.7-1.16,1-2.39,2-3.66,2.88a88.25,88.25,0,0,1-16.81,9.67,107.11,107.11,0,0,1-10.73,4.07c-1.22.38-2.45.75-3.68,1.1,4.2-2.21,8.44-4.39,12.63-6.61q7.59-4,15-8.19c2.82-1.59,5.72-3.14,8.37-4.87a.17.17,0,0,0,.1-.14A.85.85,0,0,1,809,59Zm-.07-.42Zm-.12-.13a.35.35,0,0,0-.36,0c-2.58,1.33-5,2.79-7.5,4.19s-5,2.79-7.53,4.16q-7.5,4.1-15.21,8-3.06,1.55-6.15,3.08a118.44,118.44,0,0,1,25.6-15.4c3.3-1.46,6.69-2.83,10.17-4.08.21-.08.18-.24,0-.32A1.11,1.11,0,0,1,808.82,58.4Zm-11.13,2.86c1.58-.61,3.19-1.2,4.81-1.74.82-.28,1.64-.54,2.46-.8a16.52,16.52,0,0,1,2.46-.68A127.56,127.56,0,0,0,773.7,75.25c-1.78,1.29-3.47,2.64-5.12,4A89.48,89.48,0,0,1,797.69,61.26Zm19.24-28c-2.33,1.48-4.58,3-7,4.47-2.83,1.68-5.76,3.29-8.8,4.79a143.73,143.73,0,0,1-19.36,7.94c-1.66.53-3.34,1-5,1.51l4.1-2,9-4.32q9-4.27,18-8.52c2.56-1.21,5.11-2.42,7.64-3.66ZM806.22,44.05c-6.73,3.27-14.75,4.91-22.46,6.62l-.73.17c2.72-1,5.42-2,8.05-3a141.91,141.91,0,0,0,18.27-9.07,84.48,84.48,0,0,0,7.82-5C815.77,37.93,811.39,41.53,806.22,44.05ZM779,49.56a97.72,97.72,0,0,1,24-12.73,84.3,84.3,0,0,1,10.45-2.95c-4.64,2.1-9.18,4.3-13.76,6.45q-9,4.24-18.12,8.43l-4.08,1.89C778,50.29,778.47,49.92,779,49.56ZM759.75,24.44A107.22,107.22,0,0,1,757.82,42l-.52-.85c.18-1,.23-1.94.34-2.89.14-1.3.27-2.61.39-3.91.24-2.56.28-5.14.28-7.7a85.21,85.21,0,0,0-1.51-15.34c-.24-1.31-.51-2.62-.82-3.93A37.17,37.17,0,0,1,759.75,24.44Zm-6.87-22,.3.4a.22.22,0,0,0,0,.08,87.43,87.43,0,0,1,4,30.43c-.08,1.42-.15,2.83-.32,4.25,0,.31-.09.63-.14,1A169.53,169.53,0,0,1,753,10.21c-.06-1.51-.11-3-.13-4.54C752.88,4.63,753,3.53,752.88,2.47Zm-2,7.73a46.35,46.35,0,0,1,1-4.73q0,2,.09,3.9.15,4,.46,7.92c.42,5.35,1.06,10.7,2,16,.21,1.23.43,2.47.66,3.7A45.21,45.21,0,0,1,750.89,10.2ZM721,74.25c-2.47.9-5,1.66-7.64,2.35A288.75,288.75,0,0,0,739.65,61c2-1.33,3.93-2.7,5.85-4.08C740.16,64.22,731.5,70.37,721,74.25Zm-5.87.58a115.47,115.47,0,0,1,23-15c2.23-1.1,4.54-2.13,6.85-3.16A288.19,288.19,0,0,1,718,73.27C717.05,73.8,716.07,74.31,715.08,74.83Zm.93-3.31a56.42,56.42,0,0,1,6.41-5.19,71.63,71.63,0,0,1,15.75-8.18,78.63,78.63,0,0,1,8.26-2.6v0A114.58,114.58,0,0,0,731,62.93a128.09,128.09,0,0,0-14.51,9.31c-1.63,1.23-3.17,2.52-4.67,3.83.49-.57,1-1.16,1.46-1.72C714.12,73.38,715,72.44,716,71.52Zm-7.09-8.61c-1.27-1.46-2.58-2.9-3.77-4.4-1.45-1.83-2.8-3.71-4-5.62a78.18,78.18,0,0,1-5.46-10.28A38.67,38.67,0,0,1,707.77,59.2,36.82,36.82,0,0,1,708.92,62.91Zm-15.65-22.1c.45.32.87.66,1.3,1a53.64,53.64,0,0,0,5.67,11.27,69,69,0,0,0,4.1,5.72,49.66,49.66,0,0,0,4.71,5.33.3.3,0,0,0,.17.08,40.87,40.87,0,0,1,.66,4.11c-.37-.43-.76-.84-1.09-1.24-.79-1-1.57-2-2.33-3-1.52-2-3-4-4.39-6.09a141,141,0,0,1-7.74-12.52c-1.09-2-2.09-4-3.16-6C691.9,39.87,692.6,40.34,693.27,40.81Zm-3.09-1.93a82.92,82.92,0,0,0,6.39,12.32,147.92,147.92,0,0,0,8.17,12.4c.84,1.13,1.7,2.26,2.58,3.38l1.34,1.68A6.7,6.7,0,0,0,710,70.13a41.49,41.49,0,0,1,0,5.23l-.37.51c-3.14-4.7-6.33-9.36-9.17-14.16s-5.36-9.71-7.7-14.65c-1.34-2.8-2.57-5.64-4-8.43,0-.06-.11-.07-.2-.07A3,3,0,0,1,690.18,38.88Zm-.38,6.2c-.33-1-.65-2.07-1-3.1-.17-.54-.34-1.08-.5-1.61a3.21,3.21,0,0,1-.25-1.25.59.59,0,0,1,.42-.53c-.07,0-.13.08-.11.14a108.55,108.55,0,0,0,6.69,14.86c2.54,4.93,5.25,9.82,8.18,14.64q1.49,2.44,3,4.88a52.65,52.65,0,0,1-11.59-15.55A90.71,90.71,0,0,1,689.8,45.08ZM659.88,107.2c-3.45,2.59-7.1,5.06-10.91,7.4,1.92-1.45,3.75-3,5.51-4.46,5.16-4.38,10-8.9,15.07-13.35,3-2.63,5.91-5.27,8.86-7.91a.12.12,0,0,0,0-.19l1.71-.29A136.35,136.35,0,0,1,659.88,107.2ZM674.8,89.36c1-.21,2-.39,3-.57-5.23,4.5-10.42,9-15.67,13.51-4.86,4.15-9.54,8.43-14.89,12.3-1.31,1-2.67,1.85-4.07,2.72,6.21-6.08,9.85-13.22,15.23-19.65.92-1.11,1.89-2.19,2.93-3.24.32-.32.66-.63,1-1A53.47,53.47,0,0,1,668,91.24,63.42,63.42,0,0,1,674.8,89.36Zm-26,13.72A40.8,40.8,0,0,1,660,94.67c-.58.6-1.15,1.21-1.69,1.83-1.65,1.87-3.13,3.81-4.56,5.77a134.94,134.94,0,0,1-9.13,11.82,45.51,45.51,0,0,1-5.42,5.09C642.52,113.85,644.25,108.07,648.79,103.08Zm-55.24,13.85c-2.93,2.76-6,5.44-9.13,8.11l-1.3,1.1c.22-.3.46-.58.68-.88a176.57,176.57,0,0,0,18.41-18.76q1.65-1.95,3.19-4a44.22,44.22,0,0,1-4,6A79,79,0,0,1,593.55,116.93Zm-6.6-1.62a40.74,40.74,0,0,1,12-11.21c1.37-.85,2.8-1.67,4.28-2.43.74-.38,1.49-.74,2.25-1.1a12.87,12.87,0,0,0,1.34-.67l-.14.26a.3.3,0,0,0-.23.09,181.84,181.84,0,0,1-19.32,20.87l-.35.31q1.92-2.34,3.94-4.65,4.51-5.16,9.42-10.14,2.8-2.86,5.7-5.68c.19-.19-.22-.38-.42-.19A224.17,224.17,0,0,0,586,121.18c-1,1.22-2.11,2.42-3.13,3.65l-.15.13a20.21,20.21,0,0,1,.82-3.07A28.91,28.91,0,0,1,587,115.31ZM551.64,96.38a146.21,146.21,0,0,0-21.9,13.93A113.66,113.66,0,0,0,512,127.14q-1.9,2.28-3.63,4.6a51.31,51.31,0,0,1,9-13.63,75.3,75.3,0,0,1,20-15.52,120.27,120.27,0,0,1,13.93-6.15Zm-1.53,1.41c-1.17.88-2.26,1.84-3.37,2.74q-2.36,1.92-4.68,3.85-4.66,3.84-9.27,7.73c-6.11,5.15-12.29,10.26-18.29,15.47-1.45,1.25-2.87,2.51-4.3,3.77a105.13,105.13,0,0,1,9.91-11.43,123.33,123.33,0,0,1,19.38-15.74C542.88,101.93,546.44,99.81,550.11,97.79Zm-9.89,10.94c-4.57,4.07-9.5,8-14.47,11.8-3.91,3-7.86,6.06-11.74,9.12,8.92-8.08,18-16.1,27.34-24,1.67-1.41,3.36-2.81,5-4.22A64.38,64.38,0,0,0,551.57,97a.06.06,0,0,0,0-.05l.57-.31C548.34,100.77,544.57,104.86,540.22,108.73ZM552.4,96.42a.23.23,0,0,0-.14-.15l.34-.06Zm-44.41,31a46.74,46.74,0,0,1,6.5-10.91,54.1,54.1,0,0,1,22.06-16.07A68.2,68.2,0,0,1,548.43,97a93.47,93.47,0,0,0-21.55,11.47A65.7,65.7,0,0,0,509.93,126a46.63,46.63,0,0,0-4.43,9c.15-.63.3-1.25.47-1.88A48.71,48.71,0,0,1,508,127.46Zm-53.12,18.23c-1.56.41-3.14.79-4.73,1.16l.1,0,4.84-1.89Q460,143,465,141.16c6.61-2.48,13.3-4.83,20.05-7.12l5.58-1.88,1.69-.55A191.68,191.68,0,0,1,454.87,145.69Zm7.73-6.61a149.23,149.23,0,0,1,22.73-6.92c3.35-.77,6.73-1.48,10.11-2.16h0c-1.42.36-2.8.82-4.17,1.26L486.08,133q-5.16,1.71-10.26,3.49c-6.76,2.35-13.51,4.73-20.16,7.22q-2.81,1.05-5.58,2.12l-.35.13A71,71,0,0,1,462.6,139.08Zm7.23-17.81a85.49,85.49,0,0,1-18.16,20l.51-.52c1.66-1.77,3.2-3.6,4.64-5.47a107.89,107.89,0,0,0,7.6-11.43c4.62-7.86,8.52-15.92,13.7-23.63a76.63,76.63,0,0,1,4.77-6.42c.85-1,1.74-2,2.66-3s1.94-1.94,2.83-2.95h.08C481.31,98.72,476.89,110.32,469.83,121.27ZM486.75,88a7.12,7.12,0,0,1,.9-.17,40.81,40.81,0,0,0-4.75,5c-1.52,1.77-2.93,3.58-4.27,5.41a133,133,0,0,0-7.49,11.62c-4.58,7.84-8.68,15.85-14.36,23.4-1.19,1.58-2.49,3.14-3.84,4.67.95-1.46,1.87-2.91,2.76-4.38a111.4,111.4,0,0,0,6.54-12.44c3.64-8.15,6.07-16.8,12.67-24.2A41.17,41.17,0,0,1,486.75,88ZM470.18,99a53.22,53.22,0,0,1,8.15-6.6c.4-.26.81-.51,1.22-.76A42,42,0,0,0,475.73,95a46.07,46.07,0,0,0-7.85,10.76c-2.28,4.22-3.93,8.57-5.81,12.86a118.92,118.92,0,0,1-6.5,12.7c-1.37,2.33-2.86,4.63-4.44,6.9-.37.54-.77,1.08-1.16,1.62a76,76,0,0,0,3.33-9.73C456.55,119.31,460.8,108.25,470.18,99Zm-25.83,70.61-.36-.27.48.19A.36.36,0,0,0,444.35,169.59Zm27.95,28.06a130.08,130.08,0,0,0-21.58-23c-1.74-1.46-3.55-2.88-5.38-4.28,10.16,5.25,18.33,12.21,23.41,20.27A41.49,41.49,0,0,1,472.3,197.65Zm-2.64-7.83a55.76,55.76,0,0,0-16.13-15.51,70.81,70.81,0,0,0-7.38-4.15C457,174.6,465.32,181.66,469.66,189.82Zm3.12-13.18c-6-1.65-12-3.47-17.92-5.27,7.09,1,14.16,2,21.12,3.31,7.94,1.52,15.73,3.36,23.36,5.45,3.63,1,7.2,2.06,10.75,3.18A183.3,183.3,0,0,1,472.78,176.64ZM513,183.45a.45.45,0,0,0-.35-.33,316.71,316.71,0,0,0-47.28-10.94c-1.6-.25-3.21-.48-4.82-.7a159.07,159.07,0,0,1,40.31,7.07c4,1.27,7.88,2.7,11.66,4.24.28.22.57.44.84.68Zm-8.49-5.76a41.79,41.79,0,0,1,6.56,3.95c-13.38-5.69-28.89-9.21-44.63-10.55-4.58-.39-9.2-.58-13.83-.6C470.61,169.78,489.58,170.46,504.5,177.69Zm-47.15,11.39a47,47,0,0,1-6-7.72c-1.54-2.52-2.81-5.11-4.44-7.6a28.75,28.75,0,0,0-2.11-2.87,145.13,145.13,0,0,1,22.37,22.21c2,2.47,3.85,5,5.59,7.52a.81.81,0,0,0,.1.09v0A61.52,61.52,0,0,1,457.35,189.08Z"/><text class="cls-2" transform="translate(0 204.68) scale(0.79 1)">F<tspan class="cls-3" x="87.52" y="0">ASHION STYLE</tspan></text></g></g></svg>