<svg xmlns="http://www.w3.org/2000/svg" viewBox="0 0 301.65 172.83"><defs><style>.cls-1{fill:#6e7f85;}.cls-2{fill:#fefefe;}.cls-3{fill:#d8d8d8;}</style></defs><g id="Capa_2" data-name="Capa 2"><g id="Capa_1-2" data-name="Capa 1"><path class="cls-1" d="M106.06,37.54C107.84,20.69,123.69,4.36,141.59.91c26-5,49.81,11,54.74,37,.67,3.54,1.77,5.06,5.61,4.72,4.46-.39,9,.13,13.47-.17,3.14-.21,3.79.89,3.94,3.86,1.52,30.58,3.28,61.15,4.77,91.74.18,3.7,1.1,5.08,5,5.29,22.59,1.24,45.13,3.2,67.58,6.14,2.33.3,5.3.27,4.93,3.49-.41,3.5-3.48,2.83-6,2.5-22.45-2.92-45-4.78-67.58-6.27-2.5-.16-3.24.37-3.05,2.84.43,5.81.55,11.64,1,17.44.22,2.63-.54,3.34-3.19,3.33q-71.67-.12-143.34,0c-3,0-3.64-.89-3.4-3.65.54-6.13.82-12.28,1.21-18.42-2-3.71-1.41-6.1,2.33-8.09,2.77-1.47,5.36-1.61,6.67,2.06.7,4.81.39,9.64.27,14.46-.07,2.77,1.11,4,3.81,4,1.33,0,2.66,0,4,0H206.78c1.17,0,2.34-.07,3.5,0,3.82.22,5.29-1.55,5.32-5.34.07-9.17-.8-18.29-1.41-27.39-.58-8.63-1-17.28-1.37-25.89-.73-15.28-2.16-30.52-2.31-45.83,0-5.54-5.1-8.39-10-5.86-2.06,1.06-1.67,3.06-1.9,4.8-.28,2.18-.52,4.34-2.63,5.63-3.25,2-7.18.23-8.1-3.63-.53-2.26-.05-4.67-.93-6.88-1.51-2.28-3.87-1.55-5.94-1.56-20.11,0-40.23.07-60.35-.1-4.38,0-7.66.38-7.56,5.82,0,.75-.53,1.57-2.28,1.89C109.91,51.62,105,45.37,106.06,37.54Z"/><path class="cls-1" d="M85.3,144.05c-1.58-1.87-3.51-1.73-5.16-.43-2.24,1.75-4.38,3.78-2.79,7.14-.91-2.36-2.86-1.14-4.3-1.09-7.8.32-15.59.8-23.38,1.22-2.09.84-4.38-.1-6.47.72l-4.72.26c-1.68.86-3.59-.06-5.27.72l-4.71.29c-1.68.84-3.6-.06-5.29.71-6.34.78-12.69,1.58-19,2.33-1.94.23-3.63,0-4.1-2.43-.49-2.63,1.3-2.9,3.1-3.21,2.67-.47,5.35-.89,8-1.33.41.28.87.71,1.32.65,8.33-1,17,1.55,25.06-1.93,3.43-1.49,7.37.34,10.53-2.06l-.09,0c2-.85,4.17.16,6.15-.7l5.55-.28c2.42-.89,5,.15,7.45-.71,10.26-.94,10.26-.94,11.18-12.19.76-2.22.07-4.54.44-6.79a27.72,27.72,0,0,1,4.87-6.26c.9-.91,2-2,3.26-.23.93,2.22.46,4.6.77,6.89,0,4.43.14,8.85,0,13.27C87.56,140.67,88,143.07,85.3,144.05Z"/><path class="cls-1" d="M106.06,37.54c.31,2.72,2.68,5,1.67,8.09-.08.25-.52,3.58,2.39,2.37,1.55-.65,1.1.93.92,1.35-1.18,2.83.58,5.47.22,8,.51.58.76.5.79,0,.44-7.49.44-7.49,8-7.49q31.95,0,63.89,0c1.74,0,3.71-.71,5.14,1-2.26,1.91-5,1.53-7.64,1.53-19.81,0-39.61,0-59.42,0-6.45,0-6.51,0-7.45,6.25-.49,3.21-1.9,5.35-5.39,5.36s-5-2.08-5.44-5.3c-.22-1.82-.12-3.66-.32-5.46-.12-2.26-2.39-2.19-3.61-3.27-.95-2.3-3-4.35-1.68-7.2C102,42.8,105.9,43,106.06,37.54Z"/><path class="cls-1" d="M79.34,113.81a90.81,90.81,0,0,1,.92-15c1.2-5.3,2.91-10.44,4.55-15.62,2.29-7.2.93-14.7-.22-22.07-.7-4.51-2.66-8.9-1.53-13.62.35-2-1.9-5.76,3.11-4.69,3.62,3.18,3.53,7.93,5.13,12a220.51,220.51,0,0,1-2,38c-4.17,6.34-7.75,12.93-8.55,20.67A1,1,0,0,1,79.34,113.81Z"/><path class="cls-1" d="M83.06,47.49c.15,6.12,2.61,11.78,3.63,17.76,2.08,12.16-1.21,23-6.43,33.55C80.79,81.67,81.57,64.56,83.06,47.49Z"/><path class="cls-1" d="M79.34,113.81h.83c.82-3.72,2.91-6.87,4.69-10.15.55-1,.94-2.69,2.79-1.53,1,1.45.8,3.13.94,4.75-.07,2.78.19,5.58-.47,8.33a4.05,4.05,0,0,1-2,2.63l-6.68,7c-1-.7-.69-1.59-.36-2.49Z"/><path class="cls-1" d="M48.11,145.61c-.24.43-.45,1.22-.72,1.24-7.45.5-14.15,5.58-21.92,3.77-3.51-.82-6.85.77-10.28.18-1.52-.27-3.5.58-4-1.85l5.74-.26c1.66-.88,3.58.09,5.25-.75l4.5-.27c1.76-.75,3.73.05,5.49-.73l4.48-.27c1.77-.75,3.75.05,5.52-.73Z"/><path class="cls-1" d="M90.14,53.83c-2.12-3.39-2.44-7.43-4-11a20.07,20.07,0,0,1,7,0c2.12,2.52,3.23,6.06,7,6.85,1.6.54,3.71-.7,4.88,1.38-2,1.59-4.43,1.23-6.72,1.19A17,17,0,0,0,90.14,53.83Z"/><path class="cls-1" d="M100.2,49.65c-6.09,1.56-6.14-3.07-7-6.85a10.44,10.44,0,0,1,5,0C98.36,45.23,101,46.93,100.2,49.65Z"/><path class="cls-1" d="M79.07,122.36l.36,2.49c-.7,2.26.6,4.82-1.08,6.92C78.24,128.61,78.1,125.44,79.07,122.36Z"/><path class="cls-1" d="M67.17,144c-2.35,1.6-5,.6-7.45.71C62.13,143.67,64.65,143.86,67.17,144Z"/><path class="cls-1" d="M54.17,145c-1.9,1.51-4.07.69-6.15.7C50,144.65,52.08,144.84,54.17,145Z"/><path class="cls-1" d="M43.2,151.61c2-1.54,4.29-.64,6.46-.72C47.59,151.86,45.4,151.71,43.2,151.61Z"/><path class="cls-1" d="M42.18,145.94c-1.68,1.46-3.65.68-5.52.73C38.4,145.68,40.29,145.81,42.18,145.94Z"/><path class="cls-1" d="M32.18,146.94c-1.66,1.46-3.63.69-5.49.73C28.42,146.69,30.31,146.83,32.18,146.94Z"/><path class="cls-1" d="M22.19,147.94c-1.58,1.43-3.47.72-5.25.75A9.12,9.12,0,0,1,22.19,147.94Z"/><path class="cls-1" d="M33.21,152.59c1.6-1.39,3.48-.69,5.27-.72A9.44,9.44,0,0,1,33.21,152.59Z"/><path class="cls-1" d="M23.21,153.59c1.61-1.4,3.5-.69,5.29-.71A9.42,9.42,0,0,1,23.21,153.59Z"/><path class="cls-2" d="M90.14,53.83c.29-1.83.51-3.49,3.17-3.26,3.91.33,7.85.32,11.77.46,0,2.33,0,4.66-.1,7-.13,2.75,0,4.8,3.8,4.82s4.37-1.65,4.34-4.87c-.07-7.33.06-7.35,7.63-7.33l68.37.23c0,2.5.17,5,0,7.49-.26,3.17.82,4.43,4.18,4.46,3.65,0,3.95-1.78,3.94-4.67,0-7.53.09-7.17,8-7.65,5.17-.32,6.63,1.31,6.86,6.41,1.56,34.42,3.4,68.83,5.32,103.24.2,3.53-.17,4.76-4.22,4.74q-62.19-.27-124.39,0c-3.54,0-4.45-.76-4-4.37.59-5.44.44-10.95.6-16.43,1.2-6.22,1-12.52,1-18.79,1-3.1-.15-6.35.71-9.45.09-2.9.19-5.79.29-8.69,1.41-3.42-.78-6.7-.4-10.08a9.06,9.06,0,0,1,1.18-3.22C89.16,80.51,90.05,67.19,90.14,53.83Z"/><path class="cls-2" d="M150.81,42.54c-11.32,0-22.64,0-33.95,0-2.53,0-4,0-3.31-3.44a38.11,38.11,0,0,1,74.87-.47c.62,3.19.14,4-3.16,4C173.78,42.43,162.3,42.54,150.81,42.54Z"/><path class="cls-1" d="M87,115.81c.1,3.17.29,6.35-.71,9.44l-.18-7.42C86.41,117.16,86.7,116.48,87,115.81Z"/><path class="cls-1" d="M88.07,93.82l-.06,3c-1,1.55.48,3.6-1,5a45.81,45.81,0,0,1-6.81,11.92A24.91,24.91,0,0,1,88.07,93.82Z"/><path class="cls-1" d="M87,101.88c.5-1.65-.43-3.59,1-5,.1,3.45.25,6.91-.72,10.29C87.19,105.37,87.08,103.63,87,101.88Z"/><path class="cls-3" d="M200.45,95.1c2.82,5.84,5.19,10.35,7.18,15a7.13,7.13,0,0,1-1.73,8.27c-2.47,2.41-5.65,1.81-8.46.94-3.33-1-3.52-4.08-3.34-7C194.49,106.29,199,102,200.45,95.1Z"/><path class="cls-1" d="M149.75,138.71c-1.4.21-2.76.08-3.41-1.36s.28-2.53,1.1-3.59c4.77-6.18,16.49-7.79,22.66-3.12,1.09.82,2.24,1.62,1.89,3.19a2.61,2.61,0,0,1-2.53,2C162.89,136.76,156.32,137.75,149.75,138.71Z"/><path class="cls-1" d="M124.64,110.58c2.91.22,4.66,1.7,4.66,4.68s-1.68,4.64-4.63,4.65-4.64-1.67-4.65-4.62S121.73,110.81,124.64,110.58Z"/><path class="cls-1" d="M177.48,110.59c2.85.17,4.64,1.64,4.68,4.6s-1.63,4.66-4.58,4.72-4.69-1.66-4.74-4.56S174.45,110.8,177.48,110.59Z"/></g></g></svg>