<svg xmlns="http://www.w3.org/2000/svg" viewBox="0 0 190.72 224.11"><defs><style>.cls-1{fill:#fff;}.cls-2{fill:#809dfe;}.cls-3{fill:#ffb5e5;}.cls-4{fill:#ffc972;}.cls-11,.cls-5{fill:#343346;}.cls-6{fill:#b8d7da;}.cls-7{fill:#f5e9ff;}.cls-8{fill:#f2858c;}.cls-10,.cls-12,.cls-13,.cls-14,.cls-9{fill:none;stroke-linecap:round;stroke-linejoin:round;}.cls-12,.cls-14,.cls-9{stroke:#343346;}.cls-10,.cls-9{stroke-width:0.38px;}.cls-10,.cls-13{stroke:#ffc972;}.cls-11{opacity:0.28;}.cls-12,.cls-13{stroke-width:0.44px;}.cls-14{stroke-width:0.56px;}</style></defs><title>img-ilustration-buy</title><g id="Capa_2" data-name="Capa 2"><g id="OBJECTS"><path class="cls-1" d="M6,224.11a6,6,0,0,1-6-6V99.64A95.09,95.09,0,0,1,13.66,50.45l-2.79-23a13.67,13.67,0,0,1,10.91-15,9.25,9.25,0,0,1,1-.17L123.09.1a12.94,12.94,0,0,1,1.65-.1A13.67,13.67,0,0,1,138.3,12l.31,2.61,1.62.84A96,96,0,0,1,162.79,32.2c.91.91,1.66,1.69,2.35,2.44l.19.2c.32.34.64.69.93,1s.61.66.9,1l.53.6c1.6,1.87,3.13,3.78,4.53,5.7.89,1.2,1.7,2.36,2.45,3.51.53.78,1.07,1.61,1.59,2.46A94.68,94.68,0,0,1,186.5,71.52c.23.72.47,1.52.69,2.32.08.28.15.56.22.85.26.92.51,1.89.74,2.88.61,2.57,1.13,5.24,1.51,7.88.09.52.16,1.06.24,1.62l.06.46a98.07,98.07,0,0,1,.76,12.11V218.11a6,6,0,0,1-6,6Z"/><path class="cls-2" d="M184.72,99.64V218.11H6V99.64a88.89,88.89,0,0,1,14.23-48.4l.93-1.4A89.64,89.64,0,0,1,58.87,18a88.29,88.29,0,0,1,9.23-3.53c1.29-.42,2.6-.8,3.91-1.15h0c2.61-.71,5.25-1.29,8-1.76l1-.18c1.59-.25,3.2-.47,4.82-.64.27,0,.54-.06.82-.07q3.86-.39,7.81-.42h.89a89,89,0,0,1,42,10.48,90,90,0,0,1,21.15,15.69c.74.74,1.47,1.49,2.18,2.26l.22.23c.28.3.57.62.83.93s.59.64.87,1l.49.56c1.48,1.72,2.9,3.5,4.24,5.33.79,1.07,1.55,2.15,2.28,3.26.51.76,1,1.52,1.49,2.3A89.55,89.55,0,0,1,176,61.09a88.52,88.52,0,0,1,4.76,12.19c.23.72.45,1.45.65,2.19.07.24.14.49.2.74.25.89.48,1.8.69,2.71q.87,3.64,1.43,7.41c.08.52.15,1,.22,1.54h0l.06.46A89.63,89.63,0,0,1,184.72,99.64Z"/><path class="cls-3" d="M184.72,99.64v23.22A31.66,31.66,0,0,1,176,61.09a88.52,88.52,0,0,1,4.76,12.19c.23.72.45,1.45.65,2.19.07.24.14.49.2.74.25.89.48,1.8.69,2.71q.87,3.64,1.43,7.41c.08.52.15,1,.22,1.54h0l.06.46A89.63,89.63,0,0,1,184.72,99.64Z"/><path class="cls-3" d="M56.3,202.79a31.46,31.46,0,0,1-3.95,15.32H6V177.2a31.66,31.66,0,0,1,50.3,25.59Z"/><path class="cls-4" d="M32,75.9A31.67,31.67,0,0,1,6,107.06V99.64a88.89,88.89,0,0,1,14.23-48.4A31.57,31.57,0,0,1,32,75.9Z"/><path class="cls-5" d="M147.91,204.77,47.62,216.94a7,7,0,0,1-.91.06l-.51,0a7.65,7.65,0,0,1-7.11-6.73L16.83,26.76A7.66,7.66,0,0,1,23,18.3a3.55,3.55,0,0,1,.47-.08h0L123.81,6.06a7.66,7.66,0,0,1,8.53,6.68l22.26,183.5A7.67,7.67,0,0,1,147.91,204.77Z"/><rect class="cls-6" x="36.77" y="16.69" width="104.23" height="188.61" rx="7.04" transform="translate(-12.47 11.26) rotate(-6.77)"/><path class="cls-6" d="M46.71,217l-.51,0L23,18.3a3.55,3.55,0,0,1,.47-.08h0Z"/><path class="cls-6" d="M26.07,57.06,23.78,39.61A1.89,1.89,0,0,0,21.9,38a1.62,1.62,0,0,0-.31,0A1.91,1.91,0,0,0,20,40.06l1.87,17.51a1.92,1.92,0,0,0,1.89,1.7l.26,0,.42-.06A1.91,1.91,0,0,0,26.07,57.06Zm-1.7,1.64-.43.06a1.41,1.41,0,0,1-1.58-1.25L20.49,40a.76.76,0,0,1,0-.15,1.41,1.41,0,0,1,1.19-1.39l.22,0a1.44,1.44,0,0,1,.84.28,1.39,1.39,0,0,1,.55,1l2.29,17.44A1.41,1.41,0,0,1,24.37,58.7Z"/><path class="cls-5" d="M47.7,18.53,52,24.89a4.26,4.26,0,0,0,4,1.83l44-5.48a4.26,4.26,0,0,0,3.48-2.79l2.52-7.06Z"/><path class="cls-1" d="M155.6,42.65,156,78.94c0,1.39-2.52,2.55-5.66,2.58L49.4,82.66c-3.14,0-5.7-1.06-5.71-2.45l-.36-36.29Z"/><polygon class="cls-4" points="155.6 42.65 155.7 52.62 43.43 53.89 43.33 43.92 155.6 42.65"/><path class="cls-2" d="M51,49.15a2.29,2.29,0,1,1-2.3-2.27A2.28,2.28,0,0,1,51,49.15Z"/><path class="cls-7" d="M57.51,49.08a2.28,2.28,0,1,1-2.3-2.27A2.28,2.28,0,0,1,57.51,49.08Z"/><path class="cls-8" d="M64.76,49a2.29,2.29,0,1,1-2.31-2.28A2.3,2.3,0,0,1,64.76,49Z"/><path class="cls-5" d="M137.12,72.74l-73.4.83A6.7,6.7,0,0,1,57,66.92h0a6.72,6.72,0,0,1,6.62-6.8L137,59.29a6.7,6.7,0,0,1,6.76,6.65h0A6.71,6.71,0,0,1,137.12,72.74Z"/><path class="cls-7" d="M77.9,69.27a2.65,2.65,0,0,1-1.16-.2,3.33,3.33,0,0,1-1-.65l-.07-.09a.28.28,0,0,1,0-.13.25.25,0,0,1,.08-.19.25.25,0,0,1,.19-.09.29.29,0,0,1,.19.08,2.34,2.34,0,0,0,.79.56,2.29,2.29,0,0,0,.94.19,2,2,0,0,0,.76-.14,1.21,1.21,0,0,0,.52-.39.92.92,0,0,0,.19-.58,1,1,0,0,0-.23-.66,1.77,1.77,0,0,0-.59-.41,6.73,6.73,0,0,0-.8-.29c-.25-.07-.48-.15-.69-.23a2.28,2.28,0,0,1-.59-.34,1.32,1.32,0,0,1-.4-.48,1.55,1.55,0,0,1-.15-.71,1.5,1.5,0,0,1,.24-.84,1.65,1.65,0,0,1,.69-.58,2.54,2.54,0,0,1,1.06-.22,2.84,2.84,0,0,1,1,.17,1.69,1.69,0,0,1,.77.51.4.4,0,0,1,.13.26.21.21,0,0,1-.08.18.26.26,0,0,1-.19.09.25.25,0,0,1-.16-.06A1.23,1.23,0,0,0,79,63.7a1.68,1.68,0,0,0-.51-.22,2.2,2.2,0,0,0-.58-.08,2.16,2.16,0,0,0-.74.14,1.2,1.2,0,0,0-.52.37.86.86,0,0,0-.18.58.87.87,0,0,0,.21.61,1.65,1.65,0,0,0,.56.39,7.12,7.12,0,0,0,.74.28c.25.07.5.15.73.24a2.81,2.81,0,0,1,.62.33,1.5,1.5,0,0,1,.43.51,1.67,1.67,0,0,1,.16.78,1.36,1.36,0,0,1-.24.82A1.84,1.84,0,0,1,79,69,2.62,2.62,0,0,1,77.9,69.27Z"/><path class="cls-7" d="M82.27,62.92a.29.29,0,0,1,.19.08.27.27,0,0,1,.08.19l.06,5.67a.34.34,0,0,1-.09.19.25.25,0,0,1-.19.08.24.24,0,0,1-.2-.07.3.3,0,0,1-.08-.2L82,63.2a.29.29,0,0,1,.07-.2A.3.3,0,0,1,82.27,62.92Zm0,2.78,4.19,0v.52l-4.22,0Zm4.16-2.82a.24.24,0,0,1,.2.07.27.27,0,0,1,.07.2l.06,5.66a.36.36,0,0,1-.08.2.28.28,0,0,1-.2.08.3.3,0,0,1-.2-.08.27.27,0,0,1-.08-.19l-.05-5.67a.27.27,0,0,1,.08-.19A.26.26,0,0,1,86.41,62.88Z"/><path class="cls-7" d="M94.76,65.89a3.48,3.48,0,0,1-.2,1.28,3.06,3.06,0,0,1-.6,1,2.87,2.87,0,0,1-.94.68,3,3,0,0,1-1.18.25,3.07,3.07,0,0,1-1.19-.22,2.9,2.9,0,0,1-1-.66,2.86,2.86,0,0,1-.62-1,3.95,3.95,0,0,1,0-2.57,2.92,2.92,0,0,1,.61-1,2.7,2.7,0,0,1,.93-.67,2.76,2.76,0,0,1,1.19-.25A3,3,0,0,1,93,63a2.78,2.78,0,0,1,.94.65,3.08,3.08,0,0,1,.63,1A3.74,3.74,0,0,1,94.76,65.89Zm-.56,0a2.94,2.94,0,0,0-.32-1.39,2.32,2.32,0,0,0-.85-.93,2.48,2.48,0,0,0-2.49,0,2.35,2.35,0,0,0-.84,1A3.06,3.06,0,0,0,89.41,66a3,3,0,0,0,.32,1.38,2.28,2.28,0,0,0,.86.93,2.25,2.25,0,0,0,1.24.32,2.22,2.22,0,0,0,1.24-.35,2.26,2.26,0,0,0,.84-.94A3.09,3.09,0,0,0,94.2,65.9Z"/><path class="cls-7" d="M99.23,62.73a1.72,1.72,0,0,1,.88.22,1.63,1.63,0,0,1,.6.62,1.81,1.81,0,0,1,.23.91,1.93,1.93,0,0,1-.21.93,1.72,1.72,0,0,1-.59.66,1.64,1.64,0,0,1-.88.25l-1.87,0,0-.09,0,2.45a.29.29,0,0,1-.08.19.25.25,0,0,1-.18.08.23.23,0,0,1-.2-.08.24.24,0,0,1-.07-.18L96.87,63a.25.25,0,0,1,.08-.18.24.24,0,0,1,.19-.08Zm0,3.07a1.08,1.08,0,0,0,.6-.17,1.15,1.15,0,0,0,.39-.48,1.33,1.33,0,0,0,.14-.66,1.36,1.36,0,0,0-.15-.65,1.11,1.11,0,0,0-.4-.43,1.13,1.13,0,0,0-.61-.15l-1.87,0,0-.08,0,2.68-.05,0Z"/><path class="cls-7" d="M110.83,62.6a.25.25,0,0,1,.18.07.24.24,0,0,1,.07.18l.06,5.68a.29.29,0,0,1-.28.29l-.11,0-.1-.07-4-5.29.15-.08,0,5.26a.21.21,0,0,1-.07.17.21.21,0,0,1-.17.08.25.25,0,0,1-.18-.07.23.23,0,0,1-.07-.17l-.06-5.71a.25.25,0,0,1,.08-.2.24.24,0,0,1,.18-.07l.11,0a.25.25,0,0,1,.1.08L110.72,68l-.08.16,0-5.28a.24.24,0,0,1,.07-.18A.3.3,0,0,1,110.83,62.6Z"/><path class="cls-7" d="M119.16,65.62a3.48,3.48,0,0,1-.2,1.28,2.92,2.92,0,0,1-.61,1,2.73,2.73,0,0,1-.93.68,3.08,3.08,0,0,1-1.18.25,3.16,3.16,0,0,1-1.2-.22,3,3,0,0,1-.94-.66,3,3,0,0,1-.63-1,3.79,3.79,0,0,1-.22-1.29,3.55,3.55,0,0,1,.2-1.28,3.06,3.06,0,0,1,.6-1,3,3,0,0,1,.94-.68,2.86,2.86,0,0,1,1.18-.24,2.9,2.9,0,0,1,1.19.22,2.73,2.73,0,0,1,1,.65,3.06,3.06,0,0,1,.62,1A3.51,3.51,0,0,1,119.16,65.62Zm-.56,0a3.06,3.06,0,0,0-.32-1.39,2.32,2.32,0,0,0-.85-.93,2.34,2.34,0,0,0-3.33,1,3.06,3.06,0,0,0-.29,1.39,3,3,0,0,0,.32,1.38A2.28,2.28,0,0,0,115,68a2.4,2.4,0,0,0,2.48,0,2.26,2.26,0,0,0,.84-.94A3.09,3.09,0,0,0,118.6,65.63Z"/><path class="cls-7" d="M128.38,62.39a.31.31,0,0,1,.2.07.25.25,0,0,1,.08.2.26.26,0,0,1,0,.11l-1.89,5.7a.22.22,0,0,1-.1.13.34.34,0,0,1-.14.05.42.42,0,0,1-.16,0,.27.27,0,0,1-.1-.13l-1.6-3.87.07,0-1.53,3.88a.21.21,0,0,1-.11.13.44.44,0,0,1-.15,0,.24.24,0,0,1-.14,0,.18.18,0,0,1-.09-.12l-2-5.66a.3.3,0,0,1,0-.11.22.22,0,0,1,.1-.2.39.39,0,0,1,.19-.08.3.3,0,0,1,.16.05.23.23,0,0,1,.1.12L123,67.82h-.09l1.5-3.87a.22.22,0,0,1,.09-.13.24.24,0,0,1,.15,0,.29.29,0,0,1,.16,0,.45.45,0,0,1,.1.13l1.55,3.82-.09,0,1.71-5.25a.23.23,0,0,1,.1-.12A.31.31,0,0,1,128.38,62.39Z"/><rect class="cls-4" x="36.3" y="98.03" width="112.51" height="45.34"/><rect class="cls-7" x="62.85" y="98.02" width="11.92" height="22.59"/><rect class="cls-9" x="84.82" y="132.4" width="7.49" height="7.49"/><rect class="cls-9" x="95.08" y="132.4" width="7.49" height="7.49"/><rect class="cls-5" x="108.11" y="98.03" width="40.71" height="45.34"/><line class="cls-10" x1="108.11" y1="98.03" x2="148.82" y2="143.37"/><line class="cls-10" x1="108.11" y1="143.37" x2="148.82" y2="98.03"/><polygon class="cls-11" points="144.51 143.32 36.3 143.32 36.3 133.26 84.82 137.77 92.31 138.47 95.08 138.73 102.56 139.42 108.11 139.93 110.95 140.2 144.51 143.32"/><rect class="cls-4" x="28.13" y="143.31" width="129.96" height="52.37"/><rect class="cls-7" x="58.79" y="143.31" width="13.77" height="26.09"/><rect class="cls-12" x="84.17" y="183.02" width="8.65" height="8.65"/><rect class="cls-12" x="96.02" y="183.02" width="8.65" height="8.65"/><rect class="cls-5" x="111.07" y="143.32" width="47.02" height="52.37"/><line class="cls-13" x1="111.07" y1="143.32" x2="158.09" y2="195.68"/><line class="cls-13" x1="111.07" y1="195.68" x2="158.09" y2="143.32"/><path class="cls-8" d="M184.72,168.49v37.34c-16.78.5-39.28,1.13-45.36,1.13-10,0-12.9-3.14-12.9-3.14h-.18A35.51,35.51,0,0,1,112,201.23a15.06,15.06,0,0,1-4.36-2.73l-.13-.12v0h0l-6.86-.47-1.75-.12-.62,0-.21,0-.62,0-1.13-.08-8.5-.58a.87.87,0,0,1-.5-.18,1,1,0,0,1-.39-1.14h0a8.6,8.6,0,0,1,3.64-4,17.31,17.31,0,0,1,2.23-1.18,26,26,0,0,1,3.2-1.17,55.27,55.27,0,0,1,8.65-1.78c2.12-.29,4.28-.5,6.4-.66,2.94-.22,5.78-.35,8.31-.44,3.44-.13,6.28-.21,7.94-.4,7.44-.86,5.45-4.87,5.45-4.87l-7.53-1.26-14.17-2.38-7.26-1.22-11.66-2-.69-.11a1,1,0,0,1-.69-1.53C94,168,102,166.3,111.07,166a184.39,184.39,0,0,1,21,.76l4.68.38c6.16.48,10.51.72,10.92-.26.63-1.52-1.94-3.44-5.74-5.51-4.79-2.59-11.55-5.41-16.34-8-6.36-3.39-6.75-7.89-6.53-10v-.05s0-.06,0-.09a1,1,0,0,1,1.2-.84l1.27.28,2.82.65.21.05c2.38.57,5.4,1.32,8.76,2.22,5.5,1.48,11.89,3.37,17.74,5.55l2,.78c1.9.75,3.54,1.43,5,2.08,9.65,4.31,10.16,6.69,17.39,11.68C177.9,167.35,181.23,168.17,184.72,168.49Z"/><path class="cls-3" d="M87.56,196.74A4.48,4.48,0,0,1,92.91,194a10.82,10.82,0,0,1,6,3.83Z"/><path class="cls-14" d="M86.89,196.78s11.33,1.15,22.94,1.58a175.89,175.89,0,0,0,23.65-1"/><path class="cls-14" d="M107.53,198.36s6.45,6.16,18.92,5.45l12.48-.72"/><path class="cls-3" d="M103.81,176.3l-11.66-2a2.5,2.5,0,0,1,.21-.87c1.44-3.62,7.84-2.08,10-.22A3.65,3.65,0,0,1,103.81,176.3Z"/><path class="cls-3" d="M133.33,145.58a3.87,3.87,0,0,1-.52.47,6,6,0,0,1-2.58,1.07,8.56,8.56,0,0,1-5.89-.77,6.36,6.36,0,0,1-2.8-3.69C124,143.22,128.3,144.24,133.33,145.58Z"/><path class="cls-7" d="M131.69,27.05l.85-2.93a.29.29,0,0,1,.55,0l1.2,3.06a3.38,3.38,0,0,0,1.92,1.93l3.17,1.24a.29.29,0,0,1,0,.54L136,32.19a2.86,2.86,0,0,0-1.63,1.64l-1.32,3.38a.3.3,0,0,1-.55,0L131.23,34a3.18,3.18,0,0,0-1.81-1.82l-3.22-1.26a.29.29,0,0,1,0-.54l3.58-1.27A3.07,3.07,0,0,0,131.69,27.05Z"/><path class="cls-7" d="M147.86,115.39l.85-2.93a.29.29,0,0,1,.55,0l1.2,3.06a3.38,3.38,0,0,0,1.92,1.93l3.17,1.24a.29.29,0,0,1,0,.54l-3.38,1.32a2.86,2.86,0,0,0-1.63,1.64l-1.32,3.38a.3.3,0,0,1-.55,0l-1.27-3.25a3.18,3.18,0,0,0-1.81-1.82l-3.22-1.26a.29.29,0,0,1,0-.54l3.58-1.27A3.07,3.07,0,0,0,147.86,115.39Z"/><path class="cls-7" d="M169.66,201.67l.85-2.94a.29.29,0,0,1,.55,0l1.2,3.07a3.36,3.36,0,0,0,1.92,1.92l3.18,1.24a.29.29,0,0,1,0,.54L174,206.8a2.91,2.91,0,0,0-1.64,1.64L171,211.82a.29.29,0,0,1-.54,0l-1.27-3.25a3.26,3.26,0,0,0-1.82-1.82l-3.21-1.25a.29.29,0,0,1,0-.55l3.58-1.27A3,3,0,0,0,169.66,201.67Z"/><path class="cls-7" d="M20.88,197.78l.85-2.94a.29.29,0,0,1,.55,0l1.2,3.07a3.36,3.36,0,0,0,1.92,1.92l3.17,1.24a.29.29,0,0,1,0,.54l-3.38,1.32a2.89,2.89,0,0,0-1.63,1.64l-1.32,3.38a.29.29,0,0,1-.54,0l-1.27-3.25a3.26,3.26,0,0,0-1.82-1.82l-3.22-1.25a.3.3,0,0,1,0-.55L19,199.79A3,3,0,0,0,20.88,197.78Z"/><path class="cls-7" d="M15.45,100.07l.85-2.93a.29.29,0,0,1,.55,0l1.2,3.06A3.38,3.38,0,0,0,20,102.11l3.17,1.24a.29.29,0,0,1,0,.54l-3.38,1.32a2.86,2.86,0,0,0-1.63,1.64l-1.32,3.38a.3.3,0,0,1-.55,0L15,107a3.18,3.18,0,0,0-1.81-1.82L10,103.9a.29.29,0,0,1,0-.54l3.58-1.27A3.07,3.07,0,0,0,15.45,100.07Z"/></g></g></svg>