<svg xmlns="http://www.w3.org/2000/svg" viewBox="0 0 953.94 161.07"><defs><style>.cls-1{fill:#e3e0d4;}</style></defs><title>logo-left</title><g id="Capa_2" data-name="Capa 2"><g id="Capa_1-2" data-name="Capa 1"><g id="title"><g id="path4772"><path class="cls-1" d="M0,160.87H88.66V130.75H0ZM0,96.11H88.66V65.38H0ZM0,0V30.73H88.66V0Z"/></g><g id="path4774"><path class="cls-1" d="M195.68,68.18l-31.22,63.19H147L116,68.53v92.34H88.23V0h25.18l42.42,87.65L198.25,0h25V160.87H195.68Z"/></g><g id="path4776"><path class="cls-1" d="M327.5,15.14C319.22,5.09,307.12,0,291.53,0H241.84V160.87h27.57V30.73H290c6.79,0,12.23,1.9,15.71,5.51s5.18,8.91,5.18,15.94c0,6.8-1.68,12.08-5,15.69-3.9,4.23-10.06,6.38-18.35,6.38h-4.63V105h6a60.73,60.73,0,0,0,19.53-3,42.83,42.83,0,0,0,16.05-9.63,44.12,44.12,0,0,0,10.75-16.8,66.66,66.66,0,0,0,3.7-23C338.93,37.16,335,24.21,327.5,15.14Z"/></g><g id="path4778"><path class="cls-1" d="M456.32,160.87H423l-32.61-55.21V74.25h5.27c8.3,0,14.52-2.15,18.45-6.4,3.37-3.65,5.08-8.91,5.08-15.67,0-7.06-1.76-12.42-5.22-15.92s-9.16-5.53-16.2-5.53H377.07V160.87H349.51V0h50.38a52.8,52.8,0,0,1,20.7,3.86,39.58,39.58,0,0,1,15.14,11.26c7.56,9.13,11.57,22.08,11.57,37.47,0,13.8-3.25,25.2-9.66,33.91a42.18,42.18,0,0,1-17.55,13.77Z"/></g><g id="path4780"><path class="cls-1" d="M462.31,160.87H551V130.75H462.31Zm0-64.76H551V65.38H462.31Zm0-96.11V30.73H551V0Z"/></g><g id="path4782"><path class="cls-1" d="M594.11,60.41V160.87H566.55V0H591l61.25,101.39V0h27.57V160.87H654.84Z"/></g><g id="path4784"><path class="cls-1" d="M698.55,161.07V0h45a60.92,60.92,0,0,1,26.83,6.21,68.82,68.82,0,0,1,22,17.07,81.5,81.5,0,0,1,14.88,25.6,94,94,0,0,1,0,63.13,81.64,81.64,0,0,1-14.87,25.65,68.7,68.7,0,0,1-22,17.16,60.7,60.7,0,0,1-26.84,6.25Zm45-32.38c11.18,0,21.65-5,29.5-14.08s12.11-21.21,12.11-34.18-4.3-25-12.1-34.05-18.31-14-29.51-14H726.12v96.31Z"/></g><g id="path4786"><path class="cls-1" d="M826.1,160.87H953.94V130.75H826.1Zm0-64.76H953.94V65.38H826.1ZM826.1,0V30.73H953.94V0Z"/></g></g></g></g></svg>